<?xml version="1.0" encoding="utf-8"?>
<!-- Generator: Adobe Illustrator 19.0.0, SVG Export Plug-In . SVG Version: 6.00 Build 0)  -->
<svg version="1.1" id="vteam" xmlns="http://www.w3.org/2000/svg" xmlns:xlink="http://www.w3.org/1999/xlink" x="0px" y="0px"
	 viewBox="-360 150 130 15" style="enable-background:new -360 150 130 15;" xml:space="preserve">
<style type="text/css">
	.st0{fill:#FFFFFF;}
</style>
<g>
	<polygon class="st0" points="-340.5,151.7 -342.7,154.1 -348.3,160.4 -348.3,160.4 -356.2,151.6 -358.6,150.9 -349.9,163.6 
		-348.3,164.1 -346.7,163.6 -338,150.9 	"/>
	<rect x="-324" y="155.7" class="st0" width="8.7" height="0.6"/>
	<rect x="-326" y="159.5" class="st0" width="8.7" height="0.6"/>
	<rect x="-328.1" y="163.2" class="st0" width="8.7" height="0.6"/>
	<polygon class="st0" points="-333,155.7 -333.6,155.7 -337.9,155.7 -337.9,156.3 -333.6,156.3 -333.6,163.8 -333,163.8 -333,156.3 
		-328.6,156.3 -328.6,155.7 	"/>
	<polygon class="st0" points="-296.8,155.7 -297.4,156.2 -301.4,159.8 -305.5,156.2 -306.1,155.7 -306.1,156.3 -306.1,156.5 
		-306.1,163.8 -305.5,163.8 -305.5,157 -301.6,160.4 -301.5,160.6 -301.4,160.6 -301.4,160.6 -301.3,160.4 -297.4,157 -297.4,163.8 
		-296.8,163.8 -296.8,156.4 -296.8,156.3 -296.8,155.7 	"/>
	<path class="st0" d="M-315.4,163.8l1.8-3.5h3.5l1.8,3.5h0.7l-3.9-7.5l0,0l-0.3-0.6l0,0l0,0l-0.3,0.6l0,0l-3.9,7.5H-315.4z
		 M-311.8,156.9l1.4,2.8h-2.9L-311.8,156.9z"/>
</g>
</svg>
